<svg width="272" height="65" viewBox="0 0 272 65" fill="none" xmlns="http://www.w3.org/2000/svg">
<g clip-path="url(#clip0_1_8)">
<path fill-rule="evenodd" clip-rule="evenodd" d="M51.8307 21.3273C47.9288 14.8628 40.7997 10.9109 32.6499 10.9109C20.3123 10.9109 10.6924 20.2648 10.6924 32.5C10.6924 44.7352 20.3123 55.0303 32.6499 55.0303C40.7997 55.0303 47.9288 50.3255 51.8307 43.861H63.0135C58.392 55.9251 46.4362 64.5 32.6499 64.5C14.8289 64.5 0 50.1731 0 32.5C0 14.8269 14.8289 0.5 32.6499 0.5C46.4362 0.5 58.392 9.26314 63.0135 21.3272L51.8307 21.3273ZM68.5523 28.7354L57.286 36.6412H43.1514C41.5051 40.8259 37.3842 43.7942 32.5575 43.7942C26.2826 43.7942 21.1958 38.7798 21.1958 32.5942C21.1958 26.4085 26.2826 21.3942 32.5575 21.3942C37.4568 21.3942 41.6315 24.451 43.2267 28.7354H68.5523Z" fill="white"/>
<path d="M86.4464 33.1382C85.8639 32.7125 85.0248 32.4998 83.9292 32.4998C82.5007 32.4998 81.3081 33.0995 80.3512 34.2991C79.3943 35.4986 78.9158 37.1303 78.9158 39.194V48.6744H74.0895V28.8624H78.9158V32.9447H78.999C79.4705 31.5517 80.1917 30.4682 81.1624 29.6943C82.1471 28.9075 83.2428 28.5141 84.4493 28.5141C85.323 28.5141 85.9887 28.6366 86.4464 28.8817V33.1382ZM110.016 28.8624L100.405 51.8474C98.4079 55.9492 95.6065 58 92.0007 58C90.9883 58 90.1423 57.9161 89.4628 57.7485V54.0143C90.2255 54.2465 90.919 54.3626 91.543 54.3626C93.3459 54.3626 94.6912 53.5371 95.5788 51.8861L97.0141 48.6357L88.5474 28.8624H93.8938L98.9696 43.257C99.0251 43.4376 99.1499 43.9148 99.344 44.6888H99.4481C99.5174 44.3921 99.6422 43.9277 99.8226 43.2957L105.148 28.8624H110.016ZM118.15 45.7529H118.066V57.7871H113.24V28.8624H118.066V32.3449H118.15C119.8 29.7137 122.214 28.398 125.389 28.398C128.094 28.398 130.202 29.2816 131.713 31.0486C133.225 32.8158 133.981 35.189 133.981 38.1686C133.981 41.4706 133.128 44.1148 131.422 46.1011C129.716 48.0876 127.386 49.0807 124.432 49.0807C121.714 49.0807 119.62 47.9715 118.15 45.7529ZM118.024 37.9365V40.3936C118.024 41.8383 118.518 43.0635 119.502 44.0697C120.501 45.0757 121.763 45.5788 123.288 45.5788C125.078 45.5788 126.478 44.9339 127.49 43.644C128.517 42.3413 129.029 40.529 129.029 38.2073C129.029 36.2596 128.551 34.7376 127.594 33.6412C126.651 32.532 125.368 31.9773 123.746 31.9773C122.026 31.9773 120.639 32.5448 119.585 33.68C118.545 34.815 118.024 36.2338 118.024 37.9365ZM150.145 48.4616C149.201 48.9001 147.96 49.1194 146.421 49.1194C142.287 49.1194 140.221 47.2749 140.221 43.586V32.3837H136.664V28.8624H140.221V24.277L145.048 23V28.8624H150.145V32.3837H145.048V42.2897C145.048 43.4634 145.276 44.3018 145.734 44.8049C146.192 45.3079 146.955 45.5594 148.022 45.5594C148.841 45.5594 149.548 45.3401 150.145 44.9016V48.4616ZM163.5 49.1388C160.213 49.1388 157.584 48.2165 155.615 46.372C153.66 44.5147 152.682 42.0575 152.682 39.0006C152.682 35.6728 153.702 33.0737 155.741 31.2035C157.793 29.3332 160.553 28.398 164.02 28.398C167.348 28.398 169.942 29.3074 171.8 31.1261C172.587 31.8964 173.207 32.7928 173.661 33.8154C174.279 35.207 174.588 36.8322 174.588 38.691C174.588 41.8511 173.582 44.3857 171.571 46.2947C169.574 48.1907 166.884 49.1388 163.5 49.1388ZM163.729 31.9773C161.843 31.9773 160.352 32.59 159.256 33.8154C158.161 35.0408 157.612 36.7304 157.612 38.8845C157.612 40.9611 158.167 42.5992 159.277 43.7987C160.387 44.9854 161.87 45.5788 163.729 45.5788C165.628 45.5788 167.085 44.9919 168.097 43.8182C169.124 42.6444 169.636 40.9741 169.636 38.8071C169.636 36.6272 169.124 34.944 168.097 33.7573C167.085 32.5707 165.628 31.9773 163.729 31.9773Z" fill="white"/>
<path d="M179.108 58.2273C178.057 58.2273 177.15 57.9953 176.388 57.5312C175.63 57.0625 175.045 56.4091 174.634 55.571C174.226 54.7282 174.023 53.7481 174.023 52.6307C174.023 51.5133 174.226 50.5284 174.634 49.6761C175.045 48.8191 175.618 48.1515 176.352 47.6733C177.091 47.1903 177.953 46.9489 178.938 46.9489C179.506 46.9489 180.067 47.0436 180.621 47.233C181.175 47.4223 181.679 47.7301 182.134 48.1562C182.588 48.5777 182.95 49.1364 183.22 49.8324C183.49 50.5284 183.625 51.3854 183.625 52.4034V53.1136H175.216V51.6648H181.92C181.92 51.0492 181.797 50.5 181.551 50.017C181.31 49.5341 180.964 49.1529 180.514 48.8736C180.069 48.5942 179.544 48.4545 178.938 48.4545C178.27 48.4545 177.692 48.6203 177.205 48.9517C176.722 49.2784 176.35 49.7045 176.089 50.2301C175.829 50.7557 175.699 51.3191 175.699 51.9205V52.8864C175.699 53.7102 175.841 54.4086 176.125 54.9815C176.414 55.5497 176.814 55.983 177.325 56.2812C177.837 56.5748 178.431 56.7216 179.108 56.7216C179.548 56.7216 179.946 56.66 180.301 56.5369C180.661 56.4091 180.971 56.2197 181.232 55.9688C181.492 55.7131 181.693 55.3958 181.835 55.017L183.455 55.4716C183.284 56.0208 182.998 56.5038 182.595 56.9205C182.193 57.3324 181.696 57.6544 181.104 57.8864C180.512 58.1136 179.847 58.2273 179.108 58.2273ZM187.132 47.0909L189.745 51.5511L192.359 47.0909H194.291L190.768 52.5455L194.291 58H192.359L189.745 53.767L187.132 58H185.2L188.666 52.5455L185.2 47.0909H187.132ZM200.665 58.2273C199.642 58.2273 198.762 57.9858 198.023 57.5028C197.284 57.0199 196.716 56.3546 196.319 55.5071C195.921 54.6596 195.722 53.6913 195.722 52.6023C195.722 51.4943 195.926 50.5166 196.333 49.669C196.745 48.8168 197.318 48.1515 198.051 47.6733C198.79 47.1903 199.652 46.9489 200.637 46.9489C201.404 46.9489 202.095 47.0909 202.711 47.375C203.326 47.6591 203.83 48.0568 204.223 48.5682C204.616 49.0795 204.86 49.6761 204.955 50.358H203.279C203.151 49.8608 202.867 49.4205 202.426 49.0369C201.991 48.6487 201.404 48.4545 200.665 48.4545C200.012 48.4545 199.439 48.625 198.946 48.9659C198.459 49.3021 198.078 49.7779 197.803 50.3935C197.533 51.0043 197.398 51.7216 197.398 52.5455C197.398 53.3883 197.531 54.1222 197.796 54.7472C198.066 55.3722 198.444 55.8575 198.932 56.2031C199.425 56.5488 200.002 56.7216 200.665 56.7216C201.101 56.7216 201.496 56.6458 201.851 56.4943C202.206 56.3428 202.507 56.125 202.753 55.8409C202.999 55.5568 203.175 55.2159 203.279 54.8182H204.955C204.86 55.4621 204.626 56.0421 204.252 56.5582C203.882 57.0696 203.392 57.4768 202.782 57.7798C202.176 58.0781 201.47 58.2273 200.665 58.2273ZM209.081 51.4375V58H207.405V43.4545H209.081V48.7955H209.223C209.479 48.232 209.863 47.7846 210.374 47.4531C210.89 47.117 211.577 46.9489 212.434 46.9489C213.177 46.9489 213.828 47.098 214.387 47.3963C214.945 47.6899 215.379 48.142 215.686 48.7528C215.999 49.3589 216.155 50.1307 216.155 51.0682V58H214.479V51.1818C214.479 50.3153 214.254 49.6454 213.804 49.1719C213.359 48.6937 212.741 48.4545 211.951 48.4545C211.401 48.4545 210.909 48.5705 210.473 48.8026C210.042 49.0346 209.702 49.3731 209.451 49.8182C209.204 50.2633 209.081 50.803 209.081 51.4375ZM222.432 58.2557C221.741 58.2557 221.113 58.1255 220.55 57.8651C219.986 57.5999 219.539 57.2188 219.207 56.7216C218.876 56.2197 218.71 55.6136 218.71 54.9034C218.71 54.2784 218.833 53.7718 219.08 53.3835C219.326 52.9905 219.655 52.6828 220.067 52.4602C220.479 52.2377 220.933 52.072 221.43 51.9631C221.932 51.8494 222.437 51.7595 222.943 51.6932C223.606 51.608 224.143 51.544 224.555 51.5014C224.972 51.4541 225.275 51.3759 225.464 51.267C225.659 51.1581 225.756 50.9687 225.756 50.6989V50.642C225.756 49.9413 225.564 49.3968 225.18 49.0085C224.802 48.6203 224.226 48.4261 223.455 48.4261C222.654 48.4261 222.027 48.6013 221.572 48.9517C221.118 49.3021 220.798 49.6761 220.614 50.0739L219.023 49.5057C219.307 48.8428 219.686 48.3267 220.159 47.9574C220.637 47.5833 221.158 47.3229 221.722 47.1761C222.29 47.0246 222.848 46.9489 223.398 46.9489C223.748 46.9489 224.151 46.9915 224.605 47.0767C225.064 47.1572 225.507 47.3253 225.933 47.581C226.364 47.8366 226.722 48.2225 227.006 48.7386C227.29 49.2547 227.432 49.946 227.432 50.8125V58H225.756V56.5227H225.67C225.557 56.7595 225.367 57.0128 225.102 57.2827C224.837 57.5526 224.484 57.7822 224.044 57.9716C223.604 58.161 223.066 58.2557 222.432 58.2557ZM222.688 56.75C223.35 56.75 223.909 56.6198 224.364 56.3594C224.823 56.099 225.169 55.7628 225.401 55.3509C225.637 54.9389 225.756 54.5057 225.756 54.0511V52.517C225.685 52.6023 225.528 52.6804 225.287 52.7514C225.05 52.8177 224.776 52.8769 224.463 52.929C224.155 52.9763 223.855 53.0189 223.561 53.0568C223.272 53.09 223.038 53.1184 222.858 53.142C222.422 53.1989 222.015 53.2912 221.636 53.419C221.262 53.5421 220.959 53.7292 220.727 53.9801C220.5 54.2263 220.386 54.5625 220.386 54.9886C220.386 55.571 220.602 56.0114 221.033 56.3097C221.468 56.6032 222.02 56.75 222.688 56.75ZM232.167 51.4375V58H230.491V47.0909H232.11V48.7955H232.252C232.508 48.2415 232.896 47.7964 233.417 47.4602C233.938 47.1193 234.61 46.9489 235.434 46.9489C236.173 46.9489 236.819 47.1004 237.373 47.4034C237.927 47.7017 238.358 48.1562 238.666 48.767C238.974 49.3731 239.127 50.1402 239.127 51.0682V58H237.451V51.1818C237.451 50.3248 237.229 49.6572 236.784 49.179C236.339 48.696 235.728 48.4545 234.951 48.4545C234.416 48.4545 233.938 48.5705 233.517 48.8026C233.1 49.0346 232.771 49.3731 232.529 49.8182C232.288 50.2633 232.167 50.803 232.167 51.4375ZM246.594 62.3182C245.784 62.3182 245.088 62.214 244.506 62.0057C243.923 61.8021 243.438 61.5322 243.05 61.196C242.666 60.8646 242.361 60.5095 242.134 60.1307L243.469 59.1932C243.62 59.392 243.812 59.6193 244.044 59.875C244.276 60.1354 244.593 60.3603 244.996 60.5497C245.403 60.7438 245.936 60.8409 246.594 60.8409C247.474 60.8409 248.201 60.6278 248.774 60.2017C249.347 59.7756 249.634 59.108 249.634 58.1989V55.983H249.491C249.368 56.1818 249.193 56.428 248.966 56.7216C248.743 57.0104 248.421 57.2685 248 57.4957C247.583 57.7183 247.02 57.8295 246.31 57.8295C245.429 57.8295 244.638 57.6212 243.938 57.2045C243.241 56.7879 242.69 56.1818 242.283 55.3864C241.88 54.5909 241.679 53.625 241.679 52.4886C241.679 51.3712 241.875 50.3982 242.268 49.5696C242.661 48.7363 243.208 48.0923 243.909 47.6378C244.61 47.1785 245.42 46.9489 246.338 46.9489C247.048 46.9489 247.612 47.0672 248.028 47.304C248.45 47.536 248.772 47.8011 248.994 48.0994C249.222 48.393 249.397 48.6345 249.52 48.8239H249.69V47.0909H251.31V58.3125C251.31 59.25 251.097 60.0123 250.67 60.5994C250.249 61.1913 249.681 61.6245 248.966 61.8991C248.256 62.1785 247.465 62.3182 246.594 62.3182ZM246.537 56.3239C247.209 56.3239 247.777 56.17 248.241 55.8622C248.705 55.5545 249.058 55.1117 249.3 54.5341C249.541 53.9564 249.662 53.2652 249.662 52.4602C249.662 51.6742 249.544 50.9806 249.307 50.3793C249.07 49.7779 248.72 49.3068 248.256 48.9659C247.792 48.625 247.219 48.4545 246.537 48.4545C245.827 48.4545 245.235 48.6345 244.761 48.9943C244.293 49.3542 243.94 49.8371 243.703 50.4432C243.471 51.0492 243.355 51.7216 243.355 52.4602C243.355 53.2178 243.473 53.8878 243.71 54.4702C243.952 55.0478 244.307 55.5024 244.776 55.8338C245.249 56.1605 245.836 56.3239 246.537 56.3239ZM258.952 58.2273C257.901 58.2273 256.994 57.9953 256.232 57.5312C255.474 57.0625 254.889 56.4091 254.477 55.571C254.07 54.7282 253.866 53.7481 253.866 52.6307C253.866 51.5133 254.07 50.5284 254.477 49.6761C254.889 48.8191 255.462 48.1515 256.196 47.6733C256.935 47.1903 257.796 46.9489 258.781 46.9489C259.349 46.9489 259.911 47.0436 260.464 47.233C261.018 47.4223 261.523 47.7301 261.977 48.1562C262.432 48.5777 262.794 49.1364 263.064 49.8324C263.334 50.5284 263.469 51.3854 263.469 52.4034V53.1136H255.06V51.6648H261.764C261.764 51.0492 261.641 50.5 261.395 50.017C261.153 49.5341 260.808 49.1529 260.358 48.8736C259.913 48.5942 259.387 48.4545 258.781 48.4545C258.114 48.4545 257.536 48.6203 257.048 48.9517C256.565 49.2784 256.194 49.7045 255.933 50.2301C255.673 50.7557 255.543 51.3191 255.543 51.9205V52.8864C255.543 53.7102 255.685 54.4086 255.969 54.9815C256.258 55.5497 256.658 55.983 257.169 56.2812C257.68 56.5748 258.275 56.7216 258.952 56.7216C259.392 56.7216 259.79 56.66 260.145 56.5369C260.505 56.4091 260.815 56.2197 261.075 55.9688C261.336 55.7131 261.537 55.3958 261.679 55.017L263.298 55.4716C263.128 56.0208 262.841 56.5038 262.439 56.9205C262.036 57.3324 261.539 57.6544 260.947 57.8864C260.356 58.1136 259.69 58.2273 258.952 58.2273ZM266.018 58V47.0909H267.638V48.7386H267.751C267.95 48.1989 268.31 47.7609 268.831 47.4247C269.352 47.0885 269.939 46.9205 270.592 46.9205C270.715 46.9205 270.869 46.9228 271.054 46.9276C271.239 46.9323 271.378 46.9394 271.473 46.9489V48.6534C271.416 48.6392 271.286 48.6179 271.082 48.5895C270.884 48.5563 270.673 48.5398 270.45 48.5398C269.92 48.5398 269.446 48.651 269.03 48.8736C268.618 49.0914 268.291 49.3944 268.05 49.7827C267.813 50.1662 267.695 50.6042 267.695 51.0966V58H266.018Z" fill="#007EDA"/>
<path d="M176.388 57.5312L175.862 58.3817L175.868 58.3854L176.388 57.5312ZM174.634 55.571L173.733 56.0061L173.736 56.0121L174.634 55.571ZM174.634 49.6761L173.732 49.2429L173.731 49.245L174.634 49.6761ZM176.352 47.6733L176.898 48.5111L176.9 48.5103L176.352 47.6733ZM180.621 47.233L180.944 46.2867L180.944 46.2867L180.621 47.233ZM182.134 48.1562L181.45 48.8858L181.454 48.8896L182.134 48.1562ZM183.22 49.8324L184.153 49.4709L184.153 49.4709L183.22 49.8324ZM183.625 53.1136V54.1136H184.625V53.1136H183.625ZM175.216 53.1136H174.216V54.1136H175.216V53.1136ZM175.216 51.6648V50.6648H174.216V51.6648H175.216ZM181.92 51.6648V52.6648H182.92V51.6648H181.92ZM181.551 50.017L180.657 50.4643L180.66 50.4712L181.551 50.017ZM180.514 48.8736L179.983 49.7206L179.987 49.7231L180.514 48.8736ZM177.205 48.9517L177.765 49.78L177.767 49.7788L177.205 48.9517ZM176.089 50.2301L175.193 49.7861L175.193 49.7861L176.089 50.2301ZM176.125 54.9815L175.229 55.4258L175.234 55.4347L176.125 54.9815ZM177.325 56.2812L176.821 57.145L176.827 57.1485L177.325 56.2812ZM180.301 56.5369L180.629 57.4818L180.636 57.4792L180.301 56.5369ZM181.232 55.9688L181.925 56.6889L181.932 56.6823L181.232 55.9688ZM181.835 55.017L182.105 54.0543L181.221 53.8061L180.899 54.6659L181.835 55.017ZM183.455 55.4716L184.41 55.768L184.714 54.7865L183.725 54.5088L183.455 55.4716ZM182.595 56.9205L183.31 57.6193L183.314 57.6152L182.595 56.9205ZM181.104 57.8864L181.462 58.8199L181.469 58.8174L181.104 57.8864ZM179.108 57.2273C178.207 57.2273 177.487 57.0299 176.908 56.6771L175.868 58.3854C176.813 58.9606 177.906 59.2273 179.108 59.2273V57.2273ZM176.914 56.6809C176.324 56.3158 175.864 55.8079 175.531 55.1299L173.736 56.0121C174.227 57.0103 174.936 57.8092 175.862 58.3816L176.914 56.6809ZM175.534 55.136C175.204 54.4526 175.023 53.6263 175.023 52.6307H173.023C173.023 53.8699 173.249 55.0038 173.733 56.0061L175.534 55.136ZM175.023 52.6307C175.023 51.6354 175.204 50.8024 175.536 50.1072L173.731 49.245C173.249 50.2544 173.023 51.3911 173.023 52.6307H175.023ZM175.535 50.1094C175.875 49.4026 176.331 48.881 176.898 48.5111L175.806 46.8355C174.906 47.422 174.216 48.2357 173.732 49.2429L175.535 50.1094ZM176.9 48.5103C177.457 48.1458 178.124 47.9489 178.938 47.9489V45.9489C177.782 45.9489 176.725 46.2349 175.805 46.8363L176.9 48.5103ZM178.938 47.9489C179.392 47.9489 179.844 48.0243 180.297 48.1792L180.944 46.2867C180.289 46.0628 179.619 45.9489 178.938 45.9489V47.9489ZM180.297 48.1792C180.709 48.3198 181.092 48.5503 181.45 48.8858L182.817 47.4267C182.266 46.91 181.641 46.5249 180.944 46.2867L180.297 48.1792ZM181.454 48.8896C181.776 49.1889 182.062 49.6108 182.288 50.1939L184.153 49.4709C183.839 48.6619 183.4 47.9665 182.813 47.4229L181.454 48.8896ZM182.288 50.1939C182.5 50.7411 182.625 51.467 182.625 52.4034H184.625C184.625 51.3038 184.48 50.3158 184.153 49.4709L182.288 50.1939ZM182.625 52.4034V53.1136H184.625V52.4034H182.625ZM183.625 52.1136H175.216V54.1136H183.625V52.1136ZM176.216 53.1136V51.6648H174.216V53.1136H176.216ZM175.216 52.6648H181.92V50.6648H175.216V52.6648ZM182.92 51.6648C182.92 50.9129 182.769 50.2045 182.442 49.5629L180.66 50.4712C180.826 50.7955 180.92 51.1856 180.92 51.6648H182.92ZM182.446 49.5698C182.123 48.9249 181.652 48.403 181.042 48.0241L179.987 49.7231C180.276 49.9028 180.496 50.1433 180.657 50.4643L182.446 49.5698ZM181.046 48.0266C180.418 47.6327 179.702 47.4545 178.938 47.4545V49.4545C179.385 49.4545 179.72 49.5558 179.983 49.7206L181.046 48.0266ZM178.938 47.4545C178.097 47.4545 177.317 47.666 176.642 48.1246L177.767 49.7788C178.067 49.5745 178.443 49.4545 178.938 49.4545V47.4545ZM176.644 48.1234C176.017 48.5476 175.53 49.1066 175.193 49.7861L176.986 50.6741C177.17 50.3025 177.426 50.0092 177.765 49.78L176.644 48.1234ZM175.193 49.7861C174.863 50.4533 174.699 51.1691 174.699 51.9205H176.699C176.699 51.4691 176.795 51.0581 176.986 50.6741L175.193 49.7861ZM174.699 51.9205V52.8864H176.699V51.9205H174.699ZM174.699 52.8864C174.699 53.8214 174.86 54.6809 175.229 55.4258L177.021 54.5373C176.822 54.1364 176.699 53.5991 176.699 52.8864H174.699ZM175.234 55.4347C175.602 56.1604 176.131 56.7425 176.821 57.145L177.829 55.4175C177.497 55.2234 177.225 54.939 177.016 54.5284L175.234 55.4347ZM176.827 57.1485C177.512 57.5412 178.282 57.7216 179.108 57.7216V55.7216C178.579 55.7216 178.162 55.6084 177.823 55.414L176.827 57.1485ZM179.108 57.7216C179.641 57.7216 180.152 57.6471 180.629 57.4818L179.974 55.5921C179.74 55.673 179.456 55.7216 179.108 55.7216V57.7216ZM180.636 57.4792C181.122 57.3064 181.557 57.0441 181.925 56.6888L180.538 55.2487C180.385 55.3953 180.2 55.5117 179.966 55.5946L180.636 57.4792ZM181.932 56.6823C182.307 56.3138 182.584 55.8686 182.772 55.3682L180.899 54.6659C180.802 54.9231 180.676 55.1123 180.531 55.2552L181.932 56.6823ZM181.565 55.9798L183.184 56.4344L183.725 54.5088L182.105 54.0543L181.565 55.9798ZM182.499 55.1752C182.376 55.5739 182.171 55.9207 181.876 56.2257L183.314 57.6152C183.825 57.0869 184.192 56.4678 184.41 55.768L182.499 55.1752ZM181.88 56.2216C181.586 56.5221 181.212 56.7696 180.739 56.9553L181.469 58.8174C182.179 58.5391 182.799 58.1427 183.31 57.6193L181.88 56.2216ZM180.745 56.9528C180.285 57.1296 179.744 57.2273 179.108 57.2273V59.2273C179.949 59.2273 180.739 59.0977 181.462 58.8199L180.745 56.9528ZM187.132 47.0909L187.995 46.5853L187.705 46.0909H187.132V47.0909ZM189.745 51.5511L188.883 52.0567L189.745 53.5291L190.608 52.0567L189.745 51.5511ZM192.359 47.0909V46.0909H191.786L191.496 46.5853L192.359 47.0909ZM194.291 47.0909L195.131 47.6334L196.127 46.0909H194.291V47.0909ZM190.768 52.5455L189.928 52.0029L189.578 52.5455L189.928 53.088L190.768 52.5455ZM194.291 58V59H196.127L195.131 57.4575L194.291 58ZM192.359 58L191.508 58.5254L191.801 59H192.359V58ZM189.745 53.767L190.596 53.2417L189.745 51.8636L188.895 53.2417L189.745 53.767ZM187.132 58V59H187.69L187.983 58.5254L187.132 58ZM185.2 58L184.356 57.4637L183.38 59H185.2V58ZM188.666 52.5455L189.51 53.0818L189.851 52.5455L189.51 52.0091L188.666 52.5455ZM185.2 47.0909V46.0909H183.38L184.356 47.6272L185.2 47.0909ZM186.269 47.5965L188.883 52.0567L190.608 51.0456L187.995 46.5853L186.269 47.5965ZM190.608 52.0567L193.222 47.5965L191.496 46.5853L188.883 51.0456L190.608 52.0567ZM192.359 48.0909H194.291V46.0909H192.359V48.0909ZM193.451 46.5484L189.928 52.0029L191.608 53.088L195.131 47.6334L193.451 46.5484ZM189.928 53.088L193.451 58.5425L195.131 57.4575L191.608 52.0029L189.928 53.088ZM194.291 57H192.359V59H194.291V57ZM193.21 57.4746L190.596 53.2417L188.895 54.2924L191.508 58.5254L193.21 57.4746ZM188.895 53.2417L186.281 57.4746L187.983 58.5254L190.596 54.2924L188.895 53.2417ZM187.132 57H185.2V59H187.132V57ZM186.044 58.5363L189.51 53.0818L187.822 52.0091L184.356 57.4637L186.044 58.5363ZM189.51 52.0091L186.044 46.5546L184.356 47.6272L187.822 53.0818L189.51 52.0091ZM185.2 48.0909H187.132V46.0909H185.2V48.0909ZM198.023 57.5028L197.476 58.3398L197.476 58.3398L198.023 57.5028ZM196.333 49.669L195.432 49.2339L195.431 49.236L196.333 49.669ZM198.051 47.6733L198.597 48.5111L198.599 48.5103L198.051 47.6733ZM204.223 48.5682L205.016 47.9588L205.016 47.9588L204.223 48.5682ZM204.955 50.358V51.358H206.103L205.945 50.2204L204.955 50.358ZM203.279 50.358L202.31 50.607L202.503 51.358H203.279V50.358ZM202.426 49.0369L201.761 49.7835L201.77 49.791L202.426 49.0369ZM198.946 48.9659L199.514 49.7893L199.516 49.7881L198.946 48.9659ZM197.803 50.3935L196.89 49.986L196.888 49.9893L197.803 50.3935ZM197.796 54.7472L196.875 55.1377L196.878 55.1436L197.796 54.7472ZM198.932 56.2031L198.354 57.019L198.358 57.0216L198.932 56.2031ZM201.851 56.4943L201.459 55.5745L201.459 55.5745L201.851 56.4943ZM202.753 55.8409L203.509 56.4958L203.509 56.4958L202.753 55.8409ZM203.279 54.8182V53.8182H202.507L202.311 54.5648L203.279 54.8182ZM204.955 54.8182L205.944 54.9637L206.113 53.8182H204.955V54.8182ZM204.252 56.5582L203.442 55.9714L203.441 55.9727L204.252 56.5582ZM202.782 57.7798L203.223 58.677L203.226 58.6756L202.782 57.7798ZM200.665 57.2273C199.805 57.2273 199.122 57.0264 198.57 56.6659L197.476 58.3398C198.402 58.9452 199.48 59.2273 200.665 59.2273V57.2273ZM198.57 56.6659C197.997 56.2907 197.548 55.7726 197.224 55.0823L195.413 55.9319C195.885 56.9367 196.572 57.7491 197.476 58.3398L198.57 56.6659ZM197.224 55.0823C196.898 54.3877 196.722 53.5683 196.722 52.6023H194.722C194.722 53.8143 194.944 54.9314 195.413 55.9319L197.224 55.0823ZM196.722 52.6023C196.722 51.6177 196.902 50.7925 197.234 50.1021L195.431 49.236C194.949 50.2407 194.722 51.3709 194.722 52.6023H196.722ZM197.233 50.1042C197.572 49.4022 198.028 48.8819 198.597 48.5111L197.506 46.8355C196.607 47.4211 195.917 48.2313 195.432 49.2339L197.233 50.1042ZM198.599 48.5103C199.156 48.1458 199.823 47.9489 200.637 47.9489V45.9489C199.481 45.9489 198.424 46.2349 197.504 46.8363L198.599 48.5103ZM200.637 47.9489C201.278 47.9489 201.824 48.067 202.292 48.283L203.13 46.467C202.366 46.1148 201.529 45.9489 200.637 45.9489V47.9489ZM202.292 48.283C202.768 48.5028 203.141 48.8011 203.43 49.1775L205.016 47.9588C204.52 47.3125 203.884 46.8154 203.13 46.467L202.292 48.283ZM203.43 49.1775C203.711 49.5422 203.892 49.9735 203.964 50.4955L205.945 50.2204C205.829 49.3788 205.522 48.6169 205.016 47.9588L203.43 49.1775ZM204.955 49.358H203.279V51.358H204.955V49.358ZM204.247 50.1089C204.062 49.3896 203.655 48.7804 203.083 48.2828L201.77 49.791C202.079 50.0605 202.24 50.332 202.31 50.607L204.247 50.1089ZM203.092 48.2904C202.428 47.699 201.582 47.4545 200.665 47.4545V49.4545C201.226 49.4545 201.553 49.5984 201.761 49.7834L203.092 48.2904ZM200.665 47.4545C199.828 47.4545 199.052 47.6765 198.377 48.1437L199.516 49.7881C199.826 49.5735 200.196 49.4545 200.665 49.4545V47.4545ZM198.379 48.1426C197.72 48.5968 197.229 49.2264 196.89 49.986L198.716 50.8009C198.926 50.3295 199.197 50.0074 199.514 49.7893L198.379 48.1426ZM196.888 49.9893C196.551 50.7535 196.398 51.6141 196.398 52.5455H198.398C198.398 51.8291 198.515 51.255 198.718 50.7976L196.888 49.9893ZM196.398 52.5455C196.398 53.4911 196.547 54.3632 196.875 55.1377L198.716 54.3566C198.515 53.8811 198.398 53.2855 198.398 52.5455H196.398ZM196.878 55.1436C197.21 55.913 197.697 56.5532 198.354 57.019L199.51 55.3873C199.192 55.1617 198.921 54.8313 198.714 54.3507L196.878 55.1436ZM198.358 57.0216C199.035 57.4974 199.819 57.7216 200.665 57.7216V55.7216C200.186 55.7216 199.814 55.6002 199.507 55.3846L198.358 57.0216ZM200.665 57.7216C201.218 57.7216 201.75 57.6249 202.244 57.4141L201.459 55.5745C201.243 55.6667 200.983 55.7216 200.665 55.7216V57.7216ZM202.244 57.4141C202.734 57.2047 203.161 56.8978 203.509 56.4958L201.998 55.186C201.853 55.3522 201.678 55.4809 201.459 55.5745L202.244 57.4141ZM203.509 56.4958C203.865 56.0853 204.107 55.6035 204.246 55.0715L202.311 54.5648C202.242 54.8283 202.134 55.0283 201.998 55.186L203.509 56.4958ZM203.279 55.8182H204.955V53.8182H203.279V55.8182ZM203.966 54.6727C203.894 55.1607 203.719 55.5886 203.442 55.9714L205.061 57.1451C205.532 56.4957 205.827 55.7636 205.944 54.9637L203.966 54.6727ZM203.441 55.9727C203.174 56.342 202.815 56.6472 202.337 56.884L203.226 58.6756C203.97 58.3064 204.59 57.7972 205.062 57.1437L203.441 55.9727ZM202.34 56.8826C201.895 57.1015 201.346 57.2273 200.665 57.2273V59.2273C201.594 59.2273 202.456 59.0547 203.223 58.677L202.34 56.8826ZM209.081 58V59H210.081V58H209.081ZM207.405 58H206.405V59H207.405V58ZM207.405 43.4545V42.4545H206.405V43.4545H207.405ZM209.081 43.4545H210.081V42.4545H209.081V43.4545ZM209.081 48.7955H208.081V49.7955H209.081V48.7955ZM209.223 48.7955V49.7955H209.868L210.134 49.2087L209.223 48.7955ZM210.374 47.4531L210.918 48.2923L210.92 48.291L210.374 47.4531ZM214.387 47.3963L213.916 48.2785L213.922 48.2815L214.387 47.3963ZM215.686 48.7528L214.793 49.2028L214.798 49.2111L215.686 48.7528ZM216.155 58V59H217.155V58H216.155ZM214.479 58H213.479V59H214.479V58ZM213.804 49.1719L213.072 49.8532L213.079 49.8606L213.804 49.1719ZM210.473 48.8026L210.003 47.9199L209.999 47.9221L210.473 48.8026ZM209.451 49.8182L208.58 49.327L208.576 49.3341L209.451 49.8182ZM208.081 51.4375V58H210.081V51.4375H208.081ZM209.081 57H207.405V59H209.081V57ZM208.405 58V43.4545H206.405V58H208.405ZM207.405 44.4545H209.081V42.4545H207.405V44.4545ZM208.081 43.4545V48.7955H210.081V43.4545H208.081ZM209.081 49.7955H209.223V47.7955H209.081V49.7955ZM210.134 49.2087C210.312 48.8165 210.57 48.518 210.918 48.2923L209.83 46.614C209.156 47.0511 208.646 47.6475 208.313 48.3822L210.134 49.2087ZM210.92 48.291C211.221 48.0945 211.697 47.9489 212.434 47.9489V45.9489C211.456 45.9489 210.559 46.1394 209.828 46.6152L210.92 48.291ZM212.434 47.9489C213.041 47.9489 213.525 48.07 213.916 48.2785L214.858 46.5142C214.131 46.1261 213.313 45.9489 212.434 45.9489V47.9489ZM213.922 48.2815C214.28 48.47 214.571 48.7617 214.793 49.2028L216.579 48.3029C216.186 47.5223 215.611 46.9098 214.852 46.5111L213.922 48.2815ZM214.798 49.2111C215.015 49.6325 215.155 50.2335 215.155 51.0682H217.155C217.155 50.0279 216.983 49.0853 216.575 48.2946L214.798 49.2111ZM215.155 51.0682V58H217.155V51.0682H215.155ZM216.155 57H214.479V59H216.155V57ZM215.479 58V51.1818H213.479V58H215.479ZM215.479 51.1818C215.479 50.145 215.207 49.1966 214.529 48.4831L213.079 49.8606C213.301 50.0941 213.479 50.4857 213.479 51.1818H215.479ZM214.536 48.4906C213.863 47.7671 212.956 47.4545 211.951 47.4545V49.4545C212.527 49.4545 212.855 49.6202 213.072 49.8532L214.536 48.4906ZM211.951 47.4545C211.256 47.4545 210.599 47.6025 210.003 47.9199L210.943 49.6852C211.219 49.5386 211.547 49.4545 211.951 49.4545V47.4545ZM209.999 47.9221C209.394 48.2478 208.919 48.7249 208.58 49.327L210.322 50.3093C210.484 50.0213 210.691 49.8213 210.947 49.683L209.999 47.9221ZM208.576 49.3341C208.23 49.9597 208.081 50.675 208.081 51.4375H210.081C210.081 50.9311 210.179 50.5668 210.326 50.3022L208.576 49.3341ZM220.55 57.8651L220.124 58.7699L220.13 58.7728L220.55 57.8651ZM219.207 56.7216L218.373 57.2727L218.375 57.2763L219.207 56.7216ZM219.08 53.3835L219.924 53.9191L219.927 53.9144L219.08 53.3835ZM221.43 51.9631L221.644 52.9399L221.651 52.9384L221.43 51.9631ZM222.943 51.6932L222.816 50.7013L222.813 50.7016L222.943 51.6932ZM224.555 51.5014L224.658 52.4962L224.668 52.495L224.555 51.5014ZM225.464 51.267L224.975 50.3949L224.966 50.4001L225.464 51.267ZM225.18 49.0085L224.465 49.7069L224.469 49.7113L225.18 49.0085ZM221.572 48.9517L222.183 49.7437L222.183 49.7437L221.572 48.9517ZM220.614 50.0739L220.277 51.0156L221.136 51.3224L221.521 50.495L220.614 50.0739ZM219.023 49.5057L218.104 49.1118L217.685 50.0896L218.686 50.4474L219.023 49.5057ZM220.159 47.9574L220.774 48.7459L220.775 48.7451L220.159 47.9574ZM221.722 47.1761L221.974 48.1439L221.979 48.1424L221.722 47.1761ZM224.605 47.0767L224.421 48.0596L224.432 48.0617L224.605 47.0767ZM225.933 47.581L225.419 48.4385L225.423 48.4409L225.933 47.581ZM227.006 48.7386L226.13 49.2209L226.13 49.2209L227.006 48.7386ZM227.432 58V59H228.432V58H227.432ZM225.756 58H224.756V59H225.756V58ZM225.756 56.5227H226.756V55.5227H225.756V56.5227ZM225.67 56.5227V55.5227H225.041L224.769 56.09L225.67 56.5227ZM225.102 57.2827L225.816 57.9835L225.816 57.9835L225.102 57.2827ZM224.044 57.9716L223.649 57.053L223.649 57.053L224.044 57.9716ZM224.364 56.3594L223.87 55.4895L223.867 55.4917L224.364 56.3594ZM225.401 55.3509L224.534 54.8525L224.529 54.8601L225.401 55.3509ZM225.756 52.517H226.756V49.755L224.987 51.8769L225.756 52.517ZM225.287 52.7514L225.557 53.7145L225.569 53.7108L225.287 52.7514ZM224.463 52.929L224.615 53.9174L224.627 53.9154L224.463 52.929ZM223.561 53.0568L223.675 54.0504L223.689 54.0486L223.561 53.0568ZM222.858 53.142L222.987 54.1336L222.988 54.1335L222.858 53.142ZM221.636 53.419L221.949 54.3689L221.956 54.3665L221.636 53.419ZM220.727 53.9801L219.993 53.3013L219.992 53.3018L220.727 53.9801ZM221.033 56.3097L220.463 57.1319L220.474 57.1389L221.033 56.3097ZM222.432 57.2557C221.869 57.2557 221.387 57.1504 220.969 56.9573L220.13 58.7728C220.839 59.1006 221.612 59.2557 222.432 59.2557V57.2557ZM220.976 56.9602C220.57 56.7692 220.265 56.506 220.039 56.1669L218.375 57.2763C218.812 57.9315 219.403 58.4306 220.124 58.7699L220.976 56.9602ZM220.042 56.1705C219.837 55.8599 219.71 55.4538 219.71 54.9034H217.71C217.71 55.7735 217.915 56.5795 218.373 57.2727L220.042 56.1705ZM219.71 54.9034C219.71 54.402 219.81 54.0993 219.924 53.9191L218.235 52.848C217.857 53.4443 217.71 54.1548 217.71 54.9034H219.71ZM219.927 53.9144C220.08 53.6694 220.281 53.4812 220.542 53.34L219.591 51.5804C219.029 51.8843 218.571 52.3116 218.232 52.8526L219.927 53.9144ZM220.542 53.34C220.865 53.1656 221.231 53.0306 221.644 52.9399L221.216 50.9862C220.636 51.1134 220.092 51.3098 219.591 51.5804L220.542 53.34ZM221.651 52.9384C222.123 52.8315 222.597 52.747 223.073 52.6847L222.813 50.7016C222.276 50.772 221.741 50.8674 221.21 50.9878L221.651 52.9384ZM223.071 52.685C223.73 52.6003 224.258 52.5375 224.658 52.4961L224.452 50.5067C224.029 50.5505 223.482 50.6156 222.816 50.7013L223.071 52.685ZM224.668 52.495C225.119 52.4438 225.59 52.3482 225.963 52.134L224.966 50.4001C224.975 50.395 224.944 50.4136 224.846 50.439C224.751 50.4633 224.619 50.4877 224.442 50.5078L224.668 52.495ZM225.954 52.1392C226.535 51.8129 226.756 51.2395 226.756 50.6989H224.756C224.756 50.7166 224.752 50.6664 224.793 50.5872C224.838 50.4986 224.909 50.432 224.975 50.3949L225.954 52.1392ZM226.756 50.6989V50.642H224.756V50.6989H226.756ZM226.756 50.642C226.756 49.7563 226.509 48.9302 225.892 48.3058L224.469 49.7113C224.619 49.8633 224.756 50.1263 224.756 50.642H226.756ZM225.896 48.3102C225.262 47.6597 224.38 47.4261 223.455 47.4261V49.4261C224.072 49.4261 224.342 49.5808 224.465 49.7068L225.896 48.3102ZM223.455 47.4261C222.519 47.4261 221.649 47.6303 220.962 48.1597L222.183 49.7437C222.405 49.5724 222.79 49.4261 223.455 49.4261V47.4261ZM220.962 48.1597C220.418 48.5789 219.977 49.0714 219.707 49.6528L221.521 50.495C221.62 50.2808 221.818 50.0253 222.183 49.7437L220.962 48.1597ZM220.95 49.1321L219.359 48.5639L218.686 50.4474L220.277 51.0156L220.95 49.1321ZM219.942 49.8996C220.173 49.3607 220.458 48.9925 220.774 48.7459L219.544 47.1689C218.913 47.6609 218.441 48.3249 218.104 49.1118L219.942 49.8996ZM220.775 48.7451C221.15 48.4516 221.548 48.2547 221.974 48.1438L221.47 46.2084C220.768 46.3912 220.124 46.7151 219.543 47.1697L220.775 48.7451ZM221.979 48.1424C222.469 48.0117 222.941 47.9489 223.398 47.9489V45.9489C222.756 45.9489 222.11 46.0375 221.464 46.2099L221.979 48.1424ZM223.398 47.9489C223.67 47.9489 224.009 47.9824 224.421 48.0596L224.789 46.0938C224.292 46.0006 223.826 45.9489 223.398 45.9489V47.9489ZM224.432 48.0617C224.763 48.1196 225.091 48.2417 225.419 48.4385L226.448 46.7235C225.923 46.4089 225.366 46.1947 224.778 46.0917L224.432 48.0617ZM225.423 48.4409C225.675 48.5907 225.916 48.8333 226.13 49.2209L227.882 48.2564C227.527 47.6118 227.053 47.0826 226.444 46.721L225.423 48.4409ZM226.13 49.2209C226.303 49.5359 226.432 50.0409 226.432 50.8125H228.432C228.432 49.8512 228.277 48.9736 227.882 48.2564L226.13 49.2209ZM226.432 50.8125V58H228.432V50.8125H226.432ZM227.432 57H225.756V59H227.432V57ZM226.756 58V56.5227H224.756V58H226.756ZM225.756 55.5227H225.67V57.5227H225.756V55.5227ZM224.769 56.09C224.719 56.1944 224.608 56.3589 224.389 56.5818L225.816 57.9835C226.127 57.6667 226.395 57.3245 226.572 56.9555L224.769 56.09ZM224.389 56.5818C224.235 56.7381 224.001 56.9017 223.649 57.053L224.439 58.8902C224.968 58.6627 225.439 58.367 225.816 57.9835L224.389 56.5818ZM223.649 57.053C223.367 57.1743 222.972 57.2557 222.432 57.2557V59.2557C223.16 59.2557 223.841 59.1476 224.439 58.8902L223.649 57.053ZM222.688 57.75C223.479 57.75 224.22 57.5943 224.861 57.2271L223.867 55.4917C223.598 55.6453 223.221 55.75 222.688 55.75V57.75ZM224.857 57.2293C225.455 56.8899 225.941 56.4299 226.272 55.8416L224.529 54.8601C224.397 55.0957 224.19 55.308 223.87 55.4895L224.857 57.2293ZM226.268 55.8491C226.587 55.2927 226.756 54.6886 226.756 54.0511H224.756C224.756 54.3228 224.687 54.5851 224.534 54.8526L226.268 55.8491ZM226.756 54.0511V52.517H224.756V54.0511H226.756ZM224.987 51.8769C225.036 51.819 225.08 51.7843 225.103 51.7676C225.127 51.7505 225.141 51.7438 225.138 51.7451C225.136 51.7461 225.125 51.7516 225.101 51.7605C225.078 51.7692 225.046 51.7799 225.005 51.7921L225.569 53.7108C225.724 53.6652 225.884 53.6083 226.032 53.534C226.171 53.4648 226.364 53.3492 226.524 53.1572L224.987 51.8769ZM225.017 51.7885C224.823 51.8428 224.585 51.8948 224.299 51.9426L224.627 53.9154C224.966 53.859 225.277 53.7927 225.557 53.7144L225.017 51.7885ZM224.311 51.9406C224.011 51.9868 223.718 52.0283 223.433 52.065L223.689 54.0486C223.991 54.0096 224.3 53.9659 224.615 53.9173L224.311 51.9406ZM223.447 52.0633C223.156 52.0968 222.915 52.1259 222.728 52.1506L222.988 54.1335C223.161 54.1108 223.389 54.0831 223.675 54.0503L223.447 52.0633ZM222.729 52.1504C222.235 52.2149 221.763 52.3209 221.317 52.4715L221.956 54.3665C222.267 54.2615 222.61 54.1828 222.987 54.1336L222.729 52.1504ZM221.324 52.4692C220.813 52.6372 220.357 52.9078 219.993 53.3013L221.462 54.659C221.562 54.5506 221.711 54.4471 221.949 54.3689L221.324 52.4692ZM219.992 53.3018C219.552 53.779 219.386 54.382 219.386 54.9886H221.386C221.386 54.743 221.448 54.6737 221.462 54.6584L219.992 53.3018ZM219.386 54.9886C219.386 55.8565 219.73 56.6237 220.463 57.1319L221.602 55.4875C221.474 55.399 221.386 55.2855 221.386 54.9886H219.386ZM220.474 57.1389C221.114 57.5705 221.875 57.75 222.688 57.75V55.75C222.165 55.75 221.822 55.636 221.592 55.4804L220.474 57.1389ZM232.167 58V59H233.167V58H232.167ZM230.491 58H229.491V59H230.491V58ZM230.491 47.0909V46.0909H229.491V47.0909H230.491ZM232.11 47.0909H233.11V46.0909H232.11V47.0909ZM232.11 48.7955H231.11V49.7955H232.11V48.7955ZM232.252 48.7955V49.7955H232.892L233.16 49.2145L232.252 48.7955ZM233.417 47.4602L233.96 48.3004L233.965 48.2969L233.417 47.4602ZM237.373 47.4034L236.893 48.2807L236.899 48.2839L237.373 47.4034ZM238.666 48.767L237.773 49.217L237.774 49.2198L238.666 48.767ZM239.127 58V59H240.127V58H239.127ZM237.451 58H236.451V59H237.451V58ZM236.784 49.179L236.048 49.8567L236.052 49.8603L236.784 49.179ZM233.517 48.8026L233.034 47.9265L233.03 47.9289L233.517 48.8026ZM232.529 49.8182L231.651 49.3413L231.651 49.3413L232.529 49.8182ZM231.167 51.4375V58H233.167V51.4375H231.167ZM232.167 57H230.491V59H232.167V57ZM231.491 58V47.0909H229.491V58H231.491ZM230.491 48.0909H232.11V46.0909H230.491V48.0909ZM231.11 47.0909V48.7955H233.11V47.0909H231.11ZM232.11 49.7955H232.252V47.7955H232.11V49.7955ZM233.16 49.2145C233.335 48.8356 233.595 48.5355 233.96 48.3004L232.875 46.62C232.197 47.0573 231.681 47.6473 231.345 48.3764L233.16 49.2145ZM233.965 48.2969C234.278 48.092 234.743 47.9489 235.434 47.9489V45.9489C234.478 45.9489 233.598 46.1467 232.87 46.6235L233.965 48.2969ZM235.434 47.9489C236.034 47.9489 236.51 48.0709 236.893 48.2807L237.853 46.5261C237.129 46.1299 236.312 45.9489 235.434 45.9489V47.9489ZM236.899 48.2839C237.257 48.4765 237.549 48.7725 237.773 49.217L239.559 48.3171C239.167 47.54 238.598 46.9269 237.847 46.5229L236.899 48.2839ZM237.774 49.2198C237.99 49.6439 238.127 50.2429 238.127 51.0682H240.127C240.127 50.0374 239.958 49.1023 239.557 48.3143L237.774 49.2198ZM238.127 51.0682V58H240.127V51.0682H238.127ZM239.127 57H237.451V59H239.127V57ZM238.451 58V51.1818H236.451V58H238.451ZM238.451 51.1818C238.451 50.153 238.181 49.2128 237.516 48.4977L236.052 49.8603C236.276 50.1016 236.451 50.4966 236.451 51.1818H238.451ZM237.519 48.5013C236.85 47.7754 235.952 47.4545 234.951 47.4545V49.4545C235.504 49.4545 235.827 49.6167 236.048 49.8567L237.519 48.5013ZM234.951 47.4545C234.267 47.4545 233.62 47.6044 233.034 47.9265L233.999 49.6786C234.257 49.5367 234.566 49.4545 234.951 49.4545V47.4545ZM233.03 47.9289C232.437 48.259 231.977 48.7402 231.651 49.3413L233.408 50.2951C233.565 50.006 233.763 49.8101 234.003 49.6762L233.03 47.9289ZM231.651 49.3413C231.312 49.9653 231.167 50.6779 231.167 51.4375H233.167C233.167 50.9282 233.264 50.5612 233.408 50.2951L231.651 49.3413ZM244.506 62.0057L244.843 61.0641L244.836 61.0617L244.506 62.0057ZM243.05 61.196L243.704 60.44L243.704 60.4394L243.05 61.196ZM242.134 60.1307L241.559 59.3123L240.797 59.8471L241.276 60.6452L242.134 60.1307ZM243.469 59.1932L244.264 58.5871L243.681 57.8221L242.894 58.3748L243.469 59.1932ZM244.044 59.875L244.791 59.2098L244.785 59.203L244.044 59.875ZM244.996 60.5497L245.426 59.647L245.422 59.6449L244.996 60.5497ZM248.774 60.2017L249.371 61.0041L249.371 61.0041L248.774 60.2017ZM249.634 55.983H250.634V54.983H249.634V55.983ZM249.491 55.983V54.983H248.934L248.641 55.4566L249.491 55.983ZM248.966 56.7216L248.175 56.1094L248.174 56.1113L248.966 56.7216ZM248 57.4957L248.471 58.3778L248.475 58.3759L248 57.4957ZM243.938 57.2045L243.424 58.0626L243.426 58.0641L243.938 57.2045ZM242.283 55.3864L241.39 55.8378L241.393 55.842L242.283 55.3864ZM242.268 49.5696L243.172 49.9981L243.173 49.9961L242.268 49.5696ZM243.909 47.6378L244.453 48.4768L244.457 48.4742L243.909 47.6378ZM248.028 47.304L247.534 48.1735L247.546 48.18L248.028 47.304ZM248.994 48.0994L248.193 48.6974L248.198 48.7045L248.204 48.7116L248.994 48.0994ZM249.52 48.8239L248.681 49.3689L248.977 49.8239H249.52V48.8239ZM249.69 48.8239V49.8239H250.69V48.8239H249.69ZM249.69 47.0909V46.0909H248.69V47.0909H249.69ZM251.31 47.0909H252.31V46.0909H251.31V47.0909ZM250.67 60.5994L249.861 60.012L249.856 60.0194L250.67 60.5994ZM248.966 61.8991L248.607 60.9656L248.6 60.9685L248.966 61.8991ZM248.241 55.8622L247.689 55.0289L247.689 55.0289L248.241 55.8622ZM249.3 54.5341L250.222 54.9198L250.222 54.9198L249.3 54.5341ZM249.307 50.3793L250.237 50.0129L250.237 50.0129L249.307 50.3793ZM248.256 48.9659L247.664 49.7718L247.664 49.7718L248.256 48.9659ZM244.761 48.9943L244.156 48.1981L244.152 48.2011L244.761 48.9943ZM243.703 50.4432L242.772 50.0793L242.769 50.0857L243.703 50.4432ZM243.71 54.4702L242.784 54.8468L242.788 54.8559L243.71 54.4702ZM244.776 55.8338L244.198 56.6504L244.208 56.6569L244.776 55.8338ZM246.594 61.3182C245.865 61.3182 245.289 61.2239 244.843 61.0641L244.169 62.9473C244.887 63.2041 245.703 63.3182 246.594 63.3182V61.3182ZM244.836 61.0617C244.349 60.8916 243.98 60.6788 243.704 60.44L242.395 61.952C242.896 62.3856 243.498 62.7126 244.176 62.9497L244.836 61.0617ZM243.704 60.4394C243.389 60.1673 243.156 59.8917 242.991 59.6162L241.276 60.6452C241.565 61.1273 241.944 61.5619 242.396 61.9526L243.704 60.4394ZM242.708 60.9491L244.043 60.0116L242.894 58.3748L241.559 59.3123L242.708 60.9491ZM242.673 59.7992C242.847 60.0276 243.059 60.2775 243.303 60.547L244.785 59.203C244.565 58.9612 244.393 58.7565 244.264 58.5871L242.673 59.7992ZM243.297 60.5402C243.64 60.9249 244.078 61.2229 244.57 61.4545L245.422 59.6449C245.109 59.4977 244.912 59.3459 244.791 59.2098L243.297 60.5402ZM244.565 61.4524C245.154 61.7331 245.85 61.8409 246.594 61.8409V59.8409C246.021 59.8409 245.652 59.7546 245.426 59.647L244.565 61.4524ZM246.594 61.8409C247.638 61.8409 248.589 61.586 249.371 61.0041L248.177 59.3993C247.814 59.6697 247.311 59.8409 246.594 59.8409V61.8409ZM249.371 61.0041C250.265 60.3388 250.634 59.3288 250.634 58.1989H248.634C248.634 58.8871 248.429 59.2123 248.177 59.3993L249.371 61.0041ZM250.634 58.1989V55.983H248.634V58.1989H250.634ZM249.634 54.983H249.491V56.983H249.634V54.983ZM248.641 55.4566C248.544 55.6139 248.392 55.8295 248.175 56.1094L249.757 57.3338C249.994 57.0266 250.193 56.7497 250.342 56.5093L248.641 55.4566ZM248.174 56.1113C248.059 56.2598 247.86 56.4351 247.525 56.6156L248.475 58.3759C248.983 58.1019 249.427 57.761 249.758 57.3319L248.174 56.1113ZM247.529 56.6137C247.312 56.7295 246.932 56.8295 246.31 56.8295V58.8295C247.108 58.8295 247.855 58.7071 248.471 58.3778L247.529 56.6137ZM246.31 56.8295C245.594 56.8295 244.982 56.6624 244.449 56.345L243.426 58.0641C244.294 58.58 245.264 58.8295 246.31 58.8295V56.8295ZM244.451 56.3465C243.932 56.0357 243.504 55.5769 243.173 54.9307L241.393 55.842C241.876 56.7867 242.551 57.5401 243.424 58.0626L244.451 56.3465ZM243.175 54.9349C242.86 54.3125 242.679 53.51 242.679 52.4886H240.679C240.679 53.74 240.9 54.8693 241.39 55.8378L243.175 54.9349ZM242.679 52.4886C242.679 51.4877 242.855 50.6668 243.172 49.9981L241.365 49.1411C240.896 50.1296 240.679 51.2548 240.679 52.4886H242.679ZM243.173 49.9961C243.495 49.3132 243.924 48.8198 244.453 48.4767L243.365 46.7988C242.492 47.3649 241.828 48.1593 241.364 49.1431L243.173 49.9961ZM244.457 48.4742C244.98 48.1319 245.595 47.9489 246.338 47.9489V45.9489C245.244 45.9489 244.24 46.2252 243.361 46.8014L244.457 48.4742ZM246.338 47.9489C246.953 47.9489 247.324 48.0538 247.534 48.1734L248.522 46.4345C247.9 46.0807 247.144 45.9489 246.338 45.9489V47.9489ZM247.546 48.18C247.878 48.3625 248.077 48.5418 248.193 48.6974L249.796 47.5015C249.467 47.0605 249.022 46.7095 248.511 46.428L247.546 48.18ZM248.204 48.7116C248.423 48.9953 248.58 49.2124 248.681 49.3689L250.358 48.2789C250.214 48.0566 250.02 47.7907 249.785 47.4873L248.204 48.7116ZM249.52 49.8239H249.69V47.8239H249.52V49.8239ZM250.69 48.8239V47.0909H248.69V48.8239H250.69ZM249.69 48.0909H251.31V46.0909H249.69V48.0909ZM250.31 47.0909V58.3125H252.31V47.0909H250.31ZM250.31 58.3125C250.31 59.1007 250.131 59.6396 249.861 60.012L251.48 61.1868C252.062 60.385 252.31 59.3993 252.31 58.3125H250.31ZM249.856 60.0194C249.555 60.4423 249.149 60.7575 248.607 60.9656L249.324 62.8327C250.212 62.4916 250.943 61.9403 251.485 61.1794L249.856 60.0194ZM248.6 60.9685C248.022 61.196 247.357 61.3182 246.594 61.3182V63.3182C247.573 63.3182 248.49 63.161 249.332 62.8297L248.6 60.9685ZM246.537 57.3239C247.365 57.3239 248.135 57.1328 248.794 56.6956L247.689 55.0289C247.42 55.2072 247.054 55.3239 246.537 55.3239V57.3239ZM248.794 56.6956C249.443 56.2652 249.914 55.6564 250.222 54.9198L248.377 54.1484C248.202 54.567 247.968 54.8437 247.689 55.0289L248.794 56.6956ZM250.222 54.9198C250.527 54.1905 250.662 53.3614 250.662 52.4602H248.662C248.662 53.1689 248.555 53.7224 248.377 54.1484L250.222 54.9198ZM250.662 52.4602C250.662 51.5752 250.529 50.7532 250.237 50.0129L248.376 50.7456C248.558 51.208 248.662 51.7733 248.662 52.4602H250.662ZM250.237 50.0129C249.94 49.2582 249.482 48.6259 248.848 48.16L247.664 49.7718C247.958 49.9877 248.2 50.2977 248.376 50.7456L250.237 50.0129ZM248.848 48.16C248.182 47.671 247.391 47.4545 246.537 47.4545V49.4545C247.046 49.4545 247.401 49.579 247.664 49.7718L248.848 48.16ZM246.537 47.4545C245.652 47.4545 244.836 47.6818 244.156 48.1982L245.366 49.7905C245.634 49.5871 246.001 49.4545 246.537 49.4545V47.4545ZM244.152 48.2011C243.525 48.683 243.068 49.3211 242.772 50.0793L244.635 50.807C244.812 50.3531 245.061 50.0253 245.37 49.7875L244.152 48.2011ZM242.769 50.0857C242.488 50.8205 242.355 51.6161 242.355 52.4602H244.355C244.355 51.8271 244.454 51.278 244.637 50.8007L242.769 50.0857ZM242.355 52.4602C242.355 53.3211 242.49 54.123 242.784 54.8467L244.637 54.0936C244.457 53.6526 244.355 53.1145 244.355 52.4602H242.355ZM242.788 54.8559C243.095 55.5904 243.562 56.2008 244.198 56.6503L245.353 55.0173C245.051 54.804 244.809 54.5052 244.633 54.0845L242.788 54.8559ZM244.208 56.6569C244.882 57.1219 245.678 57.3239 246.537 57.3239V55.3239C245.994 55.3239 245.617 55.1991 245.343 55.0107L244.208 56.6569ZM256.232 57.5312L255.705 58.3817L255.712 58.3854L256.232 57.5312ZM254.477 55.571L253.577 56.0061L253.58 56.0121L254.477 55.571ZM254.477 49.6761L253.576 49.2429L253.575 49.245L254.477 49.6761ZM256.196 47.6733L256.742 48.5111L256.743 48.5103L256.196 47.6733ZM260.464 47.233L260.788 46.2867L260.788 46.2867L260.464 47.233ZM261.977 48.1562L261.293 48.8858L261.297 48.8896L261.977 48.1562ZM263.064 49.8324L263.996 49.4709L263.996 49.4709L263.064 49.8324ZM263.469 53.1136V54.1136H264.469V53.1136H263.469ZM255.06 53.1136H254.06V54.1136H255.06V53.1136ZM255.06 51.6648V50.6648H254.06V51.6648H255.06ZM261.764 51.6648V52.6648H262.764V51.6648H261.764ZM261.395 50.017L260.5 50.4643L260.504 50.4712L261.395 50.017ZM260.358 48.8736L259.826 49.7206L259.83 49.7231L260.358 48.8736ZM257.048 48.9517L257.609 49.78L257.61 49.7788L257.048 48.9517ZM255.933 50.2301L255.037 49.7861L255.037 49.7861L255.933 50.2301ZM255.969 54.9815L255.073 55.4258L255.077 55.4347L255.969 54.9815ZM257.169 56.2812L256.665 57.145L256.671 57.1485L257.169 56.2812ZM260.145 56.5369L260.472 57.4818L260.48 57.4792L260.145 56.5369ZM261.075 55.9688L261.769 56.6889L261.776 56.6823L261.075 55.9688ZM261.679 55.017L261.949 54.0543L261.065 53.8061L260.743 54.6659L261.679 55.017ZM263.298 55.4716L264.253 55.768L264.558 54.7865L263.569 54.5088L263.298 55.4716ZM262.439 56.9205L263.154 57.6193L263.158 57.6152L262.439 56.9205ZM260.947 57.8864L261.306 58.8199L261.312 58.8174L260.947 57.8864ZM258.952 57.2273C258.051 57.2273 257.331 57.0299 256.751 56.6771L255.712 58.3854C256.657 58.9606 257.75 59.2273 258.952 59.2273V57.2273ZM256.758 56.6809C256.168 56.3158 255.708 55.8079 255.375 55.1299L253.58 56.0121C254.07 57.0103 254.78 57.8092 255.705 58.3816L256.758 56.6809ZM255.378 55.136C255.048 54.4526 254.866 53.6263 254.866 52.6307H252.866C252.866 53.8699 253.093 55.0038 253.577 56.0061L255.378 55.136ZM254.866 52.6307C254.866 51.6354 255.047 50.8024 255.38 50.1072L253.575 49.245C253.093 50.2544 252.866 51.3911 252.866 52.6307H254.866ZM255.379 50.1094C255.718 49.4026 256.174 48.881 256.742 48.5111L255.65 46.8355C254.75 47.422 254.06 48.2357 253.576 49.2429L255.379 50.1094ZM256.743 48.5103C257.301 48.1458 257.967 47.9489 258.781 47.9489V45.9489C257.625 45.9489 256.569 46.2349 255.649 46.8363L256.743 48.5103ZM258.781 47.9489C259.236 47.9489 259.688 48.0243 260.141 48.1792L260.788 46.2867C260.133 46.0628 259.463 45.9489 258.781 45.9489V47.9489ZM260.141 48.1792C260.552 48.3198 260.935 48.5503 261.293 48.8858L262.661 47.4267C262.11 46.91 261.485 46.5249 260.788 46.2867L260.141 48.1792ZM261.297 48.8896C261.62 49.1889 261.905 49.6108 262.132 50.1939L263.996 49.4709C263.683 48.6619 263.243 47.9665 262.657 47.4229L261.297 48.8896ZM262.132 50.1939C262.344 50.7411 262.469 51.467 262.469 52.4034H264.469C264.469 51.3038 264.324 50.3158 263.996 49.4709L262.132 50.1939ZM262.469 52.4034V53.1136H264.469V52.4034H262.469ZM263.469 52.1136H255.06V54.1136H263.469V52.1136ZM256.06 53.1136V51.6648H254.06V53.1136H256.06ZM255.06 52.6648H261.764V50.6648H255.06V52.6648ZM262.764 51.6648C262.764 50.9129 262.613 50.2045 262.286 49.5629L260.504 50.4712C260.669 50.7955 260.764 51.1856 260.764 51.6648H262.764ZM262.289 49.5698C261.967 48.9249 261.496 48.403 260.886 48.0241L259.83 49.7231C260.12 49.9028 260.34 50.1433 260.5 50.4643L262.289 49.5698ZM260.89 48.0266C260.262 47.6327 259.546 47.4545 258.781 47.4545V49.4545C259.229 49.4545 259.564 49.5558 259.826 49.7206L260.89 48.0266ZM258.781 47.4545C257.941 47.4545 257.161 47.666 256.486 48.1246L257.61 49.7788C257.911 49.5745 258.287 49.4545 258.781 49.4545V47.4545ZM256.488 48.1234C255.861 48.5476 255.374 49.1066 255.037 49.7861L256.829 50.6741C257.013 50.3025 257.27 50.0092 257.609 49.78L256.488 48.1234ZM255.037 49.7861C254.707 50.4533 254.543 51.1691 254.543 51.9205H256.543C256.543 51.4691 256.639 51.0581 256.829 50.6741L255.037 49.7861ZM254.543 51.9205V52.8864H256.543V51.9205H254.543ZM254.543 52.8864C254.543 53.8214 254.703 54.6809 255.073 55.4258L256.865 54.5373C256.666 54.1364 256.543 53.5991 256.543 52.8864H254.543ZM255.077 55.4347C255.446 56.1604 255.975 56.7425 256.665 57.145L257.673 55.4175C257.34 55.2234 257.069 54.939 256.86 54.5284L255.077 55.4347ZM256.671 57.1485C257.355 57.5412 258.126 57.7216 258.952 57.7216V55.7216C258.423 55.7216 258.005 55.6084 257.667 55.414L256.671 57.1485ZM258.952 57.7216C259.485 57.7216 259.996 57.6471 260.472 57.4818L259.817 55.5921C259.584 55.673 259.299 55.7216 258.952 55.7216V57.7216ZM260.48 57.4792C260.966 57.3064 261.401 57.0441 261.769 56.6888L260.381 55.2487C260.229 55.3953 260.043 55.5117 259.81 55.5946L260.48 57.4792ZM261.776 56.6823C262.151 56.3138 262.428 55.8686 262.615 55.3682L260.743 54.6659C260.646 54.9231 260.52 55.1123 260.375 55.2552L261.776 56.6823ZM261.409 55.9798L263.028 56.4344L263.569 54.5088L261.949 54.0543L261.409 55.9798ZM262.343 55.1752C262.219 55.5739 262.014 55.9207 261.72 56.2257L263.158 57.6152C263.668 57.0869 264.036 56.4678 264.253 55.768L262.343 55.1752ZM261.724 56.2216C261.43 56.5221 261.056 56.7696 260.582 56.9553L261.312 58.8174C262.022 58.5391 262.643 58.1427 263.154 57.6193L261.724 56.2216ZM260.589 56.9528C260.129 57.1296 259.588 57.2273 258.952 57.2273V59.2273C259.793 59.2273 260.582 59.0977 261.306 58.8199L260.589 56.9528ZM266.018 58H265.018V59H266.018V58ZM266.018 47.0909V46.0909H265.018V47.0909H266.018ZM267.638 47.0909H268.638V46.0909H267.638V47.0909ZM267.638 48.7386H266.638V49.7386H267.638V48.7386ZM267.751 48.7386V49.7386H268.449L268.69 49.0843L267.751 48.7386ZM268.831 47.4247L268.289 46.5845L268.289 46.5845L268.831 47.4247ZM271.473 46.9489H272.473V46.0439L271.573 45.9538L271.473 46.9489ZM271.473 48.6534L271.23 49.6236L272.473 49.9342V48.6534H271.473ZM271.082 48.5895L270.918 49.5759L270.931 49.5781L270.944 49.5799L271.082 48.5895ZM269.03 48.8736L269.497 49.7576L269.501 49.7557L269.03 48.8736ZM268.05 49.7827L267.201 49.2545L267.199 49.2574L268.05 49.7827ZM267.695 58V59H268.695V58H267.695ZM267.018 58V47.0909H265.018V58H267.018ZM266.018 48.0909H267.638V46.0909H266.018V48.0909ZM266.638 47.0909V48.7386H268.638V47.0909H266.638ZM267.638 49.7386H267.751V47.7386H267.638V49.7386ZM268.69 49.0843C268.808 48.7641 269.02 48.4932 269.373 48.2649L268.289 46.5845C267.601 47.0286 267.093 47.6336 266.813 48.3929L268.69 49.0843ZM269.373 48.2649C269.724 48.0388 270.12 47.9205 270.592 47.9205V45.9205C269.757 45.9205 268.98 46.1383 268.289 46.5845L269.373 48.2649ZM270.592 47.9205C270.704 47.9205 270.848 47.9226 271.028 47.9272L271.08 45.9279C270.89 45.923 270.727 45.9205 270.592 45.9205V47.9205ZM271.028 47.9272C271.207 47.9318 271.317 47.9382 271.374 47.9439L271.573 45.9538C271.44 45.9406 271.271 45.9328 271.08 45.9279L271.028 47.9272ZM270.473 46.9489V48.6534H272.473V46.9489H270.473ZM271.716 47.6833C271.597 47.6535 271.409 47.6254 271.221 47.5991L270.944 49.5799C271.042 49.5935 271.117 49.6048 271.171 49.6136C271.198 49.6181 271.218 49.6215 271.23 49.6239C271.245 49.6266 271.243 49.6266 271.23 49.6236L271.716 47.6833ZM271.247 47.6031C270.988 47.56 270.722 47.5398 270.45 47.5398V49.5398C270.623 49.5398 270.779 49.5527 270.918 49.5759L271.247 47.6031ZM270.45 47.5398C269.776 47.5398 269.137 47.6825 268.559 47.9915L269.501 49.7557C269.756 49.6196 270.064 49.5398 270.45 49.5398V47.5398ZM268.562 47.9895C267.997 48.2884 267.537 48.713 267.201 49.2545L268.899 50.3108C269.045 50.0759 269.239 49.8943 269.497 49.7576L268.562 47.9895ZM267.199 49.2574C266.856 49.8133 266.695 50.4364 266.695 51.0966H268.695C268.695 50.7719 268.77 50.5191 268.901 50.3079L267.199 49.2574ZM266.695 51.0966V58H268.695V51.0966H266.695ZM267.695 57H266.018V59H267.695V57Z" fill="#007EDA"/>
</g>
<defs>
<clipPath id="clip0_1_8">
<rect width="272" height="65" fill="white"/>
</clipPath>
</defs>
</svg>
