<svg width="68" height="65" viewBox="0 0 68 65" fill="none" xmlns="http://www.w3.org/2000/svg">
<path fill-rule="evenodd" clip-rule="evenodd" d="M51.0685 21.3273C47.224 14.8628 40.1997 10.9109 32.1698 10.9109C20.0136 10.9109 10.5352 20.2648 10.5352 32.5C10.5352 44.7352 20.0136 55.0303 32.1698 55.0303C40.1997 55.0303 47.224 50.3255 51.0685 43.861H62.0868C57.5333 55.9251 45.7533 64.5 32.1698 64.5C14.6108 64.5 0 50.1731 0 32.5C0 14.8269 14.6108 0.5 32.1698 0.5C45.7533 0.5 57.5333 9.26314 62.0868 21.3272L51.0685 21.3273ZM67.5442 28.7354L56.4436 36.6412H42.5168C40.8947 40.8259 36.8344 43.7942 32.0787 43.7942C25.8961 43.7942 20.8841 38.7798 20.8841 32.5942C20.8841 26.4085 25.8961 21.3942 32.0787 21.3942C36.906 21.3942 41.0193 24.451 42.591 28.7354H67.5442Z" fill="white"/>
</svg>
